<svg width="32" height="32" viewBox="0 0 32 32" fill="none" xmlns="http://www.w3.org/2000/svg">
<g id="akar-icons:youtube-fill">
<g id="Group">
<g id="Group_2">
<path id="Vector" d="M31.3299 9.24163C31.1488 8.58099 30.7959 7.98289 30.3087 7.51089C29.8079 7.02438 29.194 6.67637 28.525 6.4997C26.0213 5.82512 15.9907 5.82512 15.9907 5.82512C11.809 5.77648 7.62837 5.99039 3.47236 6.46563C2.80337 6.65535 2.19061 7.01114 1.6886 7.50135C1.19533 7.9865 0.838044 8.58477 0.651402 9.24027C0.203053 11.7093 -0.0147857 14.2163 0.0008228 16.7274C-0.015175 19.2363 0.202129 21.7425 0.651402 24.2146C0.834044 24.8674 1.19 25.4629 1.6846 25.944C2.1792 26.4251 2.79511 26.7726 3.47236 26.9565C6.00935 27.6298 15.9907 27.6298 15.9907 27.6298C20.1777 27.6785 24.3636 27.4646 28.525 26.9893C29.194 26.8126 29.8079 26.4646 30.3087 25.9781C30.802 25.497 31.1526 24.8987 31.3286 24.2473C31.7887 21.7792 32.0124 19.2712 31.9965 16.7588C32.0311 14.2357 31.8077 11.7159 31.3299 9.24027V9.24163ZM12.8018 21.3936V12.0626L21.1473 16.7288L12.8018 21.3936Z" fill="#DB9F6A"/>
</g>
</g>
</g>
</svg>
