<svg width="127" height="22" viewBox="0 0 127 22" fill="none" xmlns="http://www.w3.org/2000/svg">
<g id="Logotype">
<path d="M17.7281 15.904C17.1681 17.7146 16.1881 19.068 14.7881 19.964C13.3881 20.8413 11.7548 21.28 9.88813 21.28C8.0588 21.28 6.47213 20.8973 5.12813 20.132C3.8028 19.3666 2.77613 18.2746 2.04813 16.856C1.3388 15.4373 0.984131 13.7386 0.984131 11.76C0.984131 9.78131 1.34813 8.08265 2.07613 6.66398C2.80413 5.24532 3.8308 4.15332 5.15613 3.38798C6.48146 2.62265 8.04013 2.23998 9.83213 2.23998C11.7175 2.23998 13.3321 2.64131 14.6761 3.44398C16.0388 4.22798 16.9721 5.42265 17.4761 7.02798L13.9761 8.51198C13.6588 7.39198 13.1735 6.59865 12.5201 6.13198C11.8668 5.64665 11.0268 5.40398 10.0001 5.40398C8.46946 5.40398 7.2468 5.95465 6.33213 7.05598C5.43613 8.13865 4.98813 9.70665 4.98813 11.76C4.98813 13.7946 5.41746 15.3626 6.27613 16.464C7.1348 17.5653 8.37613 18.116 10.0001 18.116C11.0081 18.116 11.8761 17.8453 12.6041 17.304C13.3508 16.7627 13.8735 15.9413 14.1721 14.84L17.7281 15.904Z" fill="#FFF4EB"/>
<path d="M22.5614 4.98398C20.9747 4.98398 20.1814 4.30265 20.1814 2.93998C20.1814 1.55865 20.9747 0.867981 22.5614 0.867981C24.1481 0.867981 24.9414 1.55865 24.9414 2.93998C24.9414 4.30265 24.1481 4.98398 22.5614 4.98398ZM24.4654 6.99998V21H20.6294V6.99998H24.4654Z" fill="#FFF4EB"/>
<path d="M28.5318 21V6.99998H31.8637L32.1157 9.74398C32.4704 8.79198 33.0024 8.05465 33.7117 7.53198C34.4397 6.99065 35.3544 6.71998 36.4557 6.71998C37.1091 6.71998 37.6131 6.82265 37.9677 7.02798L37.5197 10.248C37.3331 10.192 37.0997 10.1453 36.8197 10.108C36.5584 10.052 36.2131 10.024 35.7837 10.024C35.2051 10.024 34.6544 10.164 34.1317 10.444C33.6277 10.7053 33.2077 11.116 32.8717 11.676C32.5357 12.2173 32.3678 12.908 32.3678 13.748V21H28.5318Z" fill="#FFF4EB"/>
<path d="M46.4268 6.71998C48.2935 6.71998 49.7401 7.12131 50.7668 7.92398C51.8121 8.72665 52.5028 9.69731 52.8388 10.836L49.2548 12.124C48.8815 10.4253 47.9575 9.57598 46.4828 9.57598C45.4188 9.57598 44.5881 9.94931 43.9908 10.696C43.4121 11.4426 43.1228 12.5533 43.1228 14.028C43.1228 15.5213 43.4215 16.632 44.0188 17.36C44.6348 18.0693 45.4655 18.424 46.5108 18.424C48.1348 18.424 49.1055 17.5933 49.4228 15.932L52.8948 17.052C52.5775 18.3027 51.8681 19.32 50.7668 20.104C49.6841 20.888 48.2748 21.28 46.5388 21.28C45.0828 21.28 43.8041 20.9907 42.7028 20.412C41.6201 19.8333 40.7801 19.0026 40.1828 17.92C39.5855 16.8373 39.2868 15.5306 39.2868 14C39.2868 12.4693 39.5855 11.1626 40.1828 10.08C40.7988 8.99732 41.6388 8.16665 42.7028 7.58798C43.7855 7.00931 45.0268 6.71998 46.4268 6.71998Z" fill="#FFF4EB"/>
<path d="M62.2595 6.71998C63.6595 6.71998 64.9008 7.00931 65.9835 7.58798C67.0662 8.16665 67.9062 8.99732 68.5035 10.08C69.1195 11.1626 69.4275 12.4693 69.4275 14C69.4275 15.5306 69.1195 16.8373 68.5035 17.92C67.9062 19.0026 67.0662 19.8333 65.9835 20.412C64.9008 20.9907 63.6595 21.28 62.2595 21.28C60.8408 21.28 59.5902 20.9907 58.5075 20.412C57.4435 19.8333 56.6035 19.0026 55.9875 17.92C55.3902 16.8373 55.0915 15.5306 55.0915 14C55.0915 12.4693 55.3902 11.1626 55.9875 10.08C56.6035 8.99732 57.4435 8.16665 58.5075 7.58798C59.5902 7.00931 60.8408 6.71998 62.2595 6.71998ZM62.2595 9.57598C61.2142 9.57598 60.3928 9.94931 59.7955 10.696C59.2168 11.424 58.9275 12.5253 58.9275 14C58.9275 15.4746 59.2168 16.5853 59.7955 17.332C60.3928 18.06 61.2142 18.424 62.2595 18.424C63.2862 18.424 64.0888 18.06 64.6675 17.332C65.2648 16.5853 65.5635 15.4746 65.5635 14C65.5635 12.5253 65.2648 11.424 64.6675 10.696C64.0888 9.94931 63.2862 9.57598 62.2595 9.57598Z" fill="#FFF4EB"/>
<path d="M79.0212 6.71998C80.4212 6.71998 81.6625 7.00931 82.7452 7.58798C83.8279 8.16665 84.6679 8.99732 85.2652 10.08C85.8812 11.1626 86.1892 12.4693 86.1892 14C86.1892 15.5306 85.8812 16.8373 85.2652 17.92C84.6679 19.0026 83.8279 19.8333 82.7452 20.412C81.6625 20.9907 80.4212 21.28 79.0212 21.28C77.6025 21.28 76.3519 20.9907 75.2692 20.412C74.2052 19.8333 73.3652 19.0026 72.7492 17.92C72.1519 16.8373 71.8532 15.5306 71.8532 14C71.8532 12.4693 72.1519 11.1626 72.7492 10.08C73.3652 8.99732 74.2052 8.16665 75.2692 7.58798C76.3519 7.00931 77.6025 6.71998 79.0212 6.71998ZM79.0212 9.57598C77.9759 9.57598 77.1545 9.94931 76.5572 10.696C75.9785 11.424 75.6892 12.5253 75.6892 14C75.6892 15.4746 75.9785 16.5853 76.5572 17.332C77.1545 18.06 77.9759 18.424 79.0212 18.424C80.0479 18.424 80.8505 18.06 81.4292 17.332C82.0265 16.5853 82.3252 15.4746 82.3252 14C82.3252 12.5253 82.0265 11.424 81.4292 10.696C80.8505 9.94931 80.0479 9.57598 79.0212 9.57598Z" fill="#FFF4EB"/>
<path d="M93.1789 0.867981V16.688C93.1789 17.3413 93.2909 17.7986 93.5149 18.06C93.7389 18.3213 94.1123 18.452 94.6349 18.452C94.9523 18.452 95.2136 18.4333 95.4189 18.396C95.6243 18.3587 95.8856 18.284 96.2029 18.172L95.8669 20.692C95.5496 20.8786 95.1483 21.0186 94.6629 21.112C94.1963 21.224 93.7296 21.28 93.2629 21.28C91.9003 21.28 90.9016 20.9533 90.2669 20.3C89.6509 19.628 89.3429 18.564 89.3429 17.108V0.867981H93.1789Z" fill="#FFF4EB"/>
<path d="M104.836 21.28C102.634 21.28 100.87 20.6453 99.5443 19.376C98.219 18.088 97.5563 16.296 97.5563 14C97.5563 12.4693 97.855 11.1626 98.4523 10.08C99.0497 8.99732 99.8803 8.16665 100.944 7.58798C102.027 7.00931 103.259 6.71998 104.64 6.71998C106.059 6.71998 107.263 7.00931 108.252 7.58798C109.242 8.14798 109.998 8.92265 110.52 9.91198C111.043 10.8826 111.304 11.9933 111.304 13.244C111.304 13.6173 111.295 13.972 111.276 14.308C111.258 14.644 111.23 14.9426 111.192 15.204H101.308C101.458 16.2866 101.831 17.0986 102.428 17.64C103.044 18.1626 103.838 18.424 104.808 18.424C105.63 18.424 106.292 18.2653 106.796 17.948C107.3 17.6306 107.692 17.192 107.972 16.632L111.024 17.808C110.576 18.9093 109.792 19.768 108.672 20.384C107.552 20.9813 106.274 21.28 104.836 21.28ZM104.612 9.54798C102.802 9.54798 101.71 10.5466 101.336 12.544H107.636C107.524 11.5733 107.207 10.836 106.684 10.332C106.18 9.80931 105.49 9.54798 104.612 9.54798Z" fill="#FFF4EB"/>
<path d="M120.155 21.28C118.736 21.28 117.439 21.028 116.263 20.524C115.106 20.02 114.163 19.3106 113.435 18.396L115.647 16.156C116.095 16.828 116.692 17.3787 117.439 17.808C118.186 18.2373 119.072 18.452 120.099 18.452C120.827 18.452 121.406 18.3493 121.835 18.144C122.283 17.92 122.507 17.5746 122.507 17.108C122.507 16.8093 122.405 16.5573 122.199 16.352C121.994 16.128 121.583 15.9506 120.967 15.82L118.503 15.316C116.879 14.98 115.722 14.476 115.031 13.804C114.359 13.1133 114.023 12.2266 114.023 11.144C114.023 10.3786 114.247 9.65998 114.695 8.98798C115.162 8.31598 115.852 7.77465 116.767 7.36398C117.682 6.93465 118.82 6.71998 120.183 6.71998C123.02 6.71998 125.055 7.58798 126.287 9.32398L123.991 11.564C123.58 10.9106 123.039 10.416 122.367 10.08C121.714 9.72532 121.023 9.54798 120.295 9.54798C118.652 9.54798 117.831 10.0053 117.831 10.92C117.831 11.2186 117.962 11.48 118.223 11.704C118.484 11.9093 118.96 12.0866 119.651 12.236L122.507 12.824C123.888 13.104 124.878 13.58 125.475 14.252C126.072 14.9053 126.371 15.6986 126.371 16.632C126.371 17.976 125.83 19.0867 124.747 19.964C123.683 20.8413 122.152 21.28 120.155 21.28Z" fill="#FFF4EB"/>
</g>
</svg>
