<svg width="26" height="30" viewBox="0 0 26 30" fill="none" xmlns="http://www.w3.org/2000/svg">
<g id="Logomark">
<path id="Intersect" d="M22.383 15C20.0347 17.6476 16.6223 19.3137 12.8242 19.3137C9.02606 19.3137 5.61359 17.6475 3.26538 15C5.61359 12.3525 9.02606 10.6863 12.8242 10.6863C16.6223 10.6863 20.0347 12.3525 22.383 15Z" fill="white"/>
<path id="Shape" fill-rule="evenodd" clip-rule="evenodd" d="M0 23.6275C0 16.4802 5.7416 10.6863 12.8242 10.6863C9.02612 10.6863 5.61368 12.3525 3.26548 15C5.61368 17.6475 9.02615 19.3137 12.8243 19.3137C16.6224 19.3137 20.0348 17.6476 22.383 15C24.4137 17.2896 25.6485 20.313 25.6485 23.6275V28.5163C25.6485 29.1516 25.1381 29.6667 24.5085 29.6667H1.13993C0.510365 29.6667 0 29.1516 0 28.5163V23.6275ZM22.383 15C22.383 15 22.383 15 22.383 15V15Z" fill="white"/>
<path id="Shape_2" fill-rule="evenodd" clip-rule="evenodd" d="M8.01402 18.3726C6.18289 17.6244 4.56197 16.4617 3.26548 15C5.61368 12.3524 9.02615 10.6863 12.8243 10.6863C16.6224 10.6863 20.0348 12.3524 22.383 15C22.383 15 22.383 15 22.383 15C24.4137 12.7104 25.6485 9.68699 25.6485 6.37253V1.48364C25.6485 0.848335 25.1381 0.333315 24.5085 0.333315L1.13993 0.333313C0.510366 0.333313 4.78577e-07 0.848332 4.23538e-07 1.48364L0 6.37253C-8.5186e-07 11.8031 3.3148 16.4525 8.01402 18.3726Z" fill="white"/>
</g>
</svg>
