<svg width="103" height="28" viewBox="0 0 103 28" fill="none" xmlns="http://www.w3.org/2000/svg">
<g id="Logotype">
<path d="M18.6889 7.50712C18.0625 2.98297 14.5824 0.357971 10.0682 0.357971C4.74856 0.357971 0.741455 4.23581 0.741455 10.8182C0.741455 17.3906 4.69884 21.2784 10.0682 21.2784C14.9105 21.2784 18.1221 18.1463 18.6889 14.2585L14.9701 14.2387C14.5028 16.625 12.554 17.9673 10.1179 17.9673C6.81674 17.9673 4.45026 15.4915 4.45026 10.8182C4.45026 6.22445 6.79685 3.66905 10.1278 3.66905C12.6037 3.66905 14.5426 5.07104 14.9701 7.50712H18.6889Z" fill="#FFF4EB"/>
<path d="M26.3029 21.3083C28.6992 21.3083 30.131 20.1847 30.7873 18.902H30.9066V21H34.3668V10.7784C34.3668 6.74149 31.0756 5.52843 28.1623 5.52843C24.9506 5.52843 22.4847 6.96024 21.6892 9.74434L25.05 10.2216C25.408 9.17758 26.4222 8.28269 28.1821 8.28269C29.8526 8.28269 30.7674 9.1378 30.7674 10.6392V10.6989C30.7674 11.733 29.6836 11.7827 26.989 12.071C24.0259 12.3892 21.1921 13.2742 21.1921 16.7145C21.1921 19.7174 23.3895 21.3083 26.3029 21.3083ZM27.2375 18.6634C25.7361 18.6634 24.6623 17.9773 24.6623 16.6548C24.6623 15.2727 25.8654 14.696 27.4762 14.4673C28.4208 14.3381 30.31 14.0994 30.7773 13.7216V15.5213C30.7773 17.2216 29.4052 18.6634 27.2375 18.6634Z" fill="#FFF4EB"/>
<path d="M45.6125 5.72729H42.5998V2.0682H39.0003V5.72729H36.8327V8.51138H39.0003V17.0029C38.9804 19.8764 41.0685 21.2884 43.773 21.2088C44.7972 21.179 45.5032 20.9801 45.8909 20.8509L45.2844 18.037C45.0855 18.0867 44.6779 18.1762 44.2304 18.1762C43.3256 18.1762 42.5998 17.858 42.5998 16.4063V8.51138H45.6125V5.72729Z" fill="#FFF4EB"/>
<path d="M53.0177 21.3083C55.414 21.3083 56.8458 20.1847 57.5021 18.902H57.6214V21H61.0816V10.7784C61.0816 6.74149 57.7904 5.52843 54.8771 5.52843C51.6654 5.52843 49.1995 6.96024 48.4041 9.74434L51.7649 10.2216C52.1228 9.17758 53.137 8.28269 54.897 8.28269C56.5674 8.28269 57.4822 9.1378 57.4822 10.6392V10.6989C57.4822 11.733 56.3984 11.7827 53.7038 12.071C50.7407 12.3892 47.9069 13.2742 47.9069 16.7145C47.9069 19.7174 50.1044 21.3083 53.0177 21.3083ZM53.9524 18.6634C52.451 18.6634 51.3771 17.9773 51.3771 16.6548C51.3771 15.2727 52.5802 14.696 54.191 14.4673C55.1356 14.3381 57.0248 14.0994 57.4921 13.7216V15.5213C57.4921 17.2216 56.12 18.6634 53.9524 18.6634Z" fill="#FFF4EB"/>
<path d="M68.3004 0.63638H64.701V21H68.3004V0.63638Z" fill="#FFF4EB"/>
<path d="M78.6637 21.2983C83.1381 21.2983 85.9818 18.1463 85.9818 13.4233C85.9818 8.69036 83.1381 5.52843 78.6637 5.52843C74.1892 5.52843 71.3455 8.69036 71.3455 13.4233C71.3455 18.1463 74.1892 21.2983 78.6637 21.2983ZM78.6835 18.4148C76.2077 18.4148 74.9946 16.2074 74.9946 13.4134C74.9946 10.6193 76.2077 8.38212 78.6835 8.38212C81.1196 8.38212 82.3327 10.6193 82.3327 13.4134C82.3327 16.2074 81.1196 18.4148 78.6835 18.4148Z" fill="#FFF4EB"/>
<path d="M95.6789 27.0455C99.8053 27.0455 102.848 25.1563 102.848 21.2486V5.72729H99.2982V8.25286H99.0994C98.5525 7.14917 97.409 5.52843 94.7144 5.52843C91.1846 5.52843 88.4105 8.29263 88.4105 13.3139C88.4105 18.2955 91.1846 20.7813 94.7045 20.7813C97.3195 20.7813 98.5426 19.3793 99.0994 18.2557H99.2784V21.1492C99.2784 23.3963 97.7869 24.321 95.7386 24.321C93.571 24.321 92.6164 23.2969 92.1789 22.402L88.9375 23.1875C89.5937 25.3253 91.7911 27.0455 95.6789 27.0455ZM95.7088 17.9574C93.3323 17.9574 92.0795 16.108 92.0795 13.2941C92.0795 10.5199 93.3125 8.48155 95.7088 8.48155C98.0255 8.48155 99.2982 10.4006 99.2982 13.2941C99.2982 16.2074 98.0056 17.9574 95.7088 17.9574Z" fill="#FFF4EB"/>
</g>
</svg>
