<svg width="94" height="20" viewBox="0 0 94 20" fill="none" xmlns="http://www.w3.org/2000/svg">
<g id="Logotype">
<path d="M11.6796 1.63733V14.6667H9.08985V9.12267H3.55896V14.6667H0.969238V1.63733H3.55896V6.99467H9.08985V1.63733H11.6796Z" fill="white"/>
<path d="M18.779 14.8347C17.7925 14.8347 16.9046 14.6169 16.1153 14.1813C15.3261 13.7333 14.7033 13.1049 14.247 12.296C13.8031 11.4871 13.5811 10.5538 13.5811 9.496C13.5811 8.43822 13.8092 7.50489 14.2655 6.696C14.7341 5.88711 15.3692 5.26489 16.1708 4.82933C16.9724 4.38133 17.8665 4.15733 18.853 4.15733C19.8396 4.15733 20.7337 4.38133 21.5352 4.82933C22.3368 5.26489 22.9657 5.88711 23.422 6.696C23.8906 7.50489 24.125 8.43822 24.125 9.496C24.125 10.5538 23.8845 11.4871 23.4035 12.296C22.9349 13.1049 22.2937 13.7333 21.4797 14.1813C20.6782 14.6169 19.7779 14.8347 18.779 14.8347ZM18.779 12.5573C19.2477 12.5573 19.6854 12.4453 20.0924 12.2213C20.5117 11.9849 20.8446 11.6364 21.0913 11.176C21.3379 10.7156 21.4612 10.1556 21.4612 9.496C21.4612 8.51289 21.2023 7.76 20.6843 7.23733C20.1787 6.70222 19.556 6.43467 18.816 6.43467C18.0761 6.43467 17.4534 6.70222 16.9477 7.23733C16.4545 7.76 16.2078 8.51289 16.2078 9.496C16.2078 10.4791 16.4483 11.2382 16.9292 11.7733C17.4225 12.296 18.0391 12.5573 18.779 12.5573Z" fill="white"/>
<path d="M35.6991 4.32533V14.6667H33.0908V13.36C32.7579 13.808 32.3201 14.1627 31.7775 14.424C31.2472 14.6729 30.6676 14.7973 30.0387 14.7973C29.2371 14.7973 28.528 14.6293 27.9114 14.2933C27.2948 13.9449 26.8077 13.4409 26.4501 12.7813C26.1048 12.1093 25.9321 11.3129 25.9321 10.392V4.32533H28.5218V10.0187C28.5218 10.84 28.7253 11.4747 29.1323 11.9227C29.5392 12.3582 30.0942 12.576 30.7971 12.576C31.5124 12.576 32.0735 12.3582 32.4804 11.9227C32.8874 11.4747 33.0908 10.84 33.0908 10.0187V4.32533H35.6991Z" fill="white"/>
<path d="M40.844 5.93067C41.1769 5.38311 41.6085 4.95378 42.1388 4.64267C42.6814 4.33155 43.298 4.176 43.9886 4.176V6.92H43.3042C42.4903 6.92 41.8737 7.11289 41.4544 7.49867C41.0474 7.88444 40.844 8.55644 40.844 9.51467V14.6667H38.2542V4.32533H40.844V5.93067Z" fill="white"/>
<path d="M49.747 4.15733C50.5116 4.15733 51.1837 4.31289 51.7633 4.624C52.3429 4.92267 52.7991 5.31467 53.1321 5.8V4.32533H55.7403V14.7413C55.7403 15.6996 55.5492 16.552 55.1669 17.2987C54.7846 18.0578 54.2112 18.6551 53.4466 19.0907C52.682 19.5387 51.7571 19.7627 50.6719 19.7627C49.2167 19.7627 48.0205 19.4204 47.0833 18.736C46.1584 18.0516 45.6343 17.1182 45.5109 15.936H48.0822C48.2178 16.4089 48.5076 16.7822 48.9516 17.056C49.4078 17.3422 49.9566 17.4853 50.5979 17.4853C51.3501 17.4853 51.9606 17.2551 52.4292 16.7947C52.8978 16.3467 53.1321 15.6622 53.1321 14.7413V13.136C52.7991 13.6213 52.3367 14.0258 51.7448 14.3493C51.1652 14.6729 50.4992 14.8347 49.747 14.8347C48.8837 14.8347 48.0945 14.6107 47.3792 14.1627C46.664 13.7147 46.0967 13.0862 45.6774 12.2773C45.2705 11.456 45.067 10.5164 45.067 9.45867C45.067 8.41333 45.2705 7.48622 45.6774 6.67733C46.0967 5.86844 46.6578 5.24622 47.3607 4.81067C48.076 4.37511 48.8714 4.15733 49.747 4.15733ZM53.1321 9.496C53.1321 8.86133 53.0088 8.32 52.7621 7.872C52.5155 7.41155 52.1825 7.06311 51.7633 6.82667C51.344 6.57778 50.8938 6.45333 50.4129 6.45333C49.932 6.45333 49.488 6.57155 49.081 6.808C48.6741 7.04444 48.3411 7.39289 48.0822 7.85333C47.8355 8.30133 47.7122 8.83644 47.7122 9.45867C47.7122 10.0809 47.8355 10.6284 48.0822 11.1013C48.3411 11.5618 48.6741 11.9164 49.081 12.1653C49.5003 12.4142 49.9443 12.5387 50.4129 12.5387C50.8938 12.5387 51.344 12.4204 51.7633 12.184C52.1825 11.9351 52.5155 11.5867 52.7621 11.1387C53.0088 10.6782 53.1321 10.1307 53.1321 9.496Z" fill="white"/>
<path d="M60.8593 0.853333V14.6667H58.2696V0.853333H60.8593Z" fill="white"/>
<path d="M62.7521 9.45867C62.7521 8.41333 62.9555 7.48622 63.3625 6.67733C63.7818 5.86844 64.3429 5.24622 65.0458 4.81067C65.7611 4.37511 66.5565 4.15733 67.4321 4.15733C68.1966 4.15733 68.8626 4.31289 69.4298 4.624C70.0094 4.93511 70.4719 5.32711 70.8172 5.8V4.32533H73.4254V14.6667H70.8172V13.1547C70.4842 13.64 70.0218 14.0444 69.4298 14.368C68.8502 14.6791 68.1781 14.8347 67.4136 14.8347C66.5503 14.8347 65.7611 14.6107 65.0458 14.1627C64.3429 13.7147 63.7818 13.0862 63.3625 12.2773C62.9555 11.456 62.7521 10.5164 62.7521 9.45867ZM70.8172 9.496C70.8172 8.86133 70.6939 8.32 70.4472 7.872C70.2006 7.41155 69.8676 7.06311 69.4483 6.82667C69.0291 6.57778 68.5789 6.45333 68.098 6.45333C67.617 6.45333 67.1731 6.57155 66.7661 6.808C66.3592 7.04444 66.0262 7.39289 65.7672 7.85333C65.5206 8.30133 65.3973 8.83644 65.3973 9.45867C65.3973 10.0809 65.5206 10.6284 65.7672 11.1013C66.0262 11.5618 66.3592 11.9164 66.7661 12.1653C67.1854 12.4142 67.6294 12.5387 68.098 12.5387C68.5789 12.5387 69.0291 12.4204 69.4483 12.184C69.8676 11.9351 70.2006 11.5867 70.4472 11.1387C70.6939 10.6782 70.8172 10.1307 70.8172 9.496Z" fill="white"/>
<path d="M79.8763 14.8347C79.0377 14.8347 78.2855 14.6853 77.6195 14.3867C76.9536 14.0756 76.4233 13.6587 76.0287 13.136C75.6464 12.6133 75.4368 12.0347 75.3998 11.4H78.008C78.0573 11.7982 78.2485 12.128 78.5814 12.3893C78.9267 12.6507 79.3522 12.7813 79.8578 12.7813C80.3511 12.7813 80.7334 12.6818 81.0047 12.4827C81.2883 12.2836 81.4301 12.0284 81.4301 11.7173C81.4301 11.3813 81.2575 11.1324 80.9122 10.9707C80.5792 10.7964 80.0428 10.6098 79.3028 10.4107C78.5383 10.224 77.9093 10.0311 77.4161 9.832C76.9351 9.63289 76.5158 9.328 76.1582 8.91733C75.8129 8.50667 75.6403 7.95289 75.6403 7.256C75.6403 6.68356 75.8006 6.16089 76.1212 5.688C76.4542 5.21511 76.9228 4.84178 77.527 4.568C78.1436 4.29422 78.8651 4.15733 79.6913 4.15733C80.9122 4.15733 81.8864 4.46844 82.614 5.09067C83.3416 5.70044 83.7424 6.528 83.8164 7.57333H81.3376C81.3006 7.16267 81.128 6.83911 80.8197 6.60267C80.5237 6.35378 80.1229 6.22933 79.6173 6.22933C79.1487 6.22933 78.7849 6.31644 78.5259 6.49067C78.2793 6.66489 78.156 6.90755 78.156 7.21867C78.156 7.56711 78.3286 7.83467 78.6739 8.02133C79.0192 8.19555 79.5557 8.376 80.2832 8.56267C81.0232 8.74933 81.6336 8.94222 82.1145 9.14133C82.5955 9.34044 83.0086 9.65156 83.3539 10.0747C83.7115 10.4853 83.8965 11.0329 83.9089 11.7173C83.9089 12.3147 83.7424 12.8498 83.4094 13.3227C83.0888 13.7956 82.6202 14.1689 82.0036 14.4427C81.3993 14.704 80.6902 14.8347 79.8763 14.8347Z" fill="white"/>
<path d="M89.9562 14.8347C89.1177 14.8347 88.3654 14.6853 87.6995 14.3867C87.0336 14.0756 86.5033 13.6587 86.1087 13.136C85.7264 12.6133 85.5167 12.0347 85.4797 11.4H88.0879C88.1373 11.7982 88.3284 12.128 88.6614 12.3893C89.0067 12.6507 89.4321 12.7813 89.9377 12.7813C90.431 12.7813 90.8133 12.6818 91.0846 12.4827C91.3683 12.2836 91.5101 12.0284 91.5101 11.7173C91.5101 11.3813 91.3374 11.1324 90.9921 10.9707C90.6592 10.7964 90.1227 10.6098 89.3828 10.4107C88.6182 10.224 87.9893 10.0311 87.496 9.832C87.0151 9.63289 86.5958 9.328 86.2382 8.91733C85.8929 8.50667 85.7202 7.95289 85.7202 7.256C85.7202 6.68356 85.8805 6.16089 86.2012 5.688C86.5341 5.21511 87.0027 4.84178 87.607 4.568C88.2236 4.29422 88.945 4.15733 89.7713 4.15733C90.9921 4.15733 91.9663 4.46844 92.6939 5.09067C93.4215 5.70044 93.8223 6.528 93.8963 7.57333H91.4176C91.3806 7.16267 91.2079 6.83911 90.8996 6.60267C90.6037 6.35378 90.2029 6.22933 89.6973 6.22933C89.2287 6.22933 88.8649 6.31644 88.6059 6.49067C88.3593 6.66489 88.2359 6.90755 88.2359 7.21867C88.2359 7.56711 88.4086 7.83467 88.7539 8.02133C89.0992 8.19555 89.6356 8.376 90.3632 8.56267C91.1031 8.74933 91.7135 8.94222 92.1945 9.14133C92.6754 9.34044 93.0886 9.65156 93.4339 10.0747C93.7915 10.4853 93.9765 11.0329 93.9888 11.7173C93.9888 12.3147 93.8223 12.8498 93.4894 13.3227C93.1687 13.7956 92.7001 14.1689 92.0835 14.4427C91.4792 14.704 90.7701 14.8347 89.9562 14.8347Z" fill="white"/>
</g>
</svg>
