<!DOCTYPE svg PUBLIC "-//W3C//DTD SVG 1.1//EN" "http://www.w3.org/Graphics/SVG/1.1/DTD/svg11.dtd">
<!-- Uploaded to: SVG Repo, www.svgrepo.com, Transformed by: SVG Repo Mixer Tools -->
<svg fill="#DB9F6A" version="1.1" id="Capa_1" xmlns="http://www.w3.org/2000/svg" xmlns:xlink="http://www.w3.org/1999/xlink" width="800px" height="800px" viewBox="0 0 31.999 31.999" xml:space="preserve">
<g id="SVGRepo_bgCarrier" stroke-width="0"/>
<g id="SVGRepo_tracerCarrier" stroke-linecap="round" stroke-linejoin="round"/>
<g id="SVGRepo_iconCarrier"> <g> <path d="M31.965,4.797c-0.11-0.262-0.503-0.385-1.235-0.385c-2.762,0-10.571,1.944-14.191,6.726 c-0.046-0.015-0.079-0.036-0.086-0.07c-0.05-0.235,0.379-0.669,0.383-0.672c0.188-0.187,0.305-0.446,0.305-0.731 c0-0.419-0.251-0.778-0.611-0.939c0.119-0.226,0.279-0.454,0.437-0.679c0.342-0.484,0.688-0.984,0.617-1.46 c0-0.005,0.003-0.009,0.003-0.013c0-0.014-0.006-0.027-0.008-0.041c0-0.001,0-0.002,0-0.002l0,0 c-0.021-0.112-0.115-0.199-0.232-0.199c-0.134,0-0.242,0.108-0.242,0.242c0,0.134,0.107,0.242,0.242,0.242 c0.03,0,0.059-0.007,0.086-0.017c-0.037,0.361-0.308,0.75-0.595,1.157c-0.166,0.236-0.334,0.476-0.459,0.718 c-0.086-0.023-0.175-0.04-0.269-0.04c-0.032,0-0.063,0.006-0.094,0.009c-0.209-0.382-0.39-0.662-0.545-0.902 c-0.259-0.4-0.43-0.667-0.522-1.088c0.012,0.001,0.023,0.007,0.036,0.007c0.134,0,0.242-0.108,0.242-0.242 c0-0.133-0.108-0.242-0.242-0.242c-0.133,0-0.242,0.108-0.242,0.242c0,0.032,0.007,0.061,0.018,0.089 c0.087,0.561,0.284,0.867,0.578,1.321c0.146,0.227,0.317,0.491,0.512,0.843c-0.442,0.116-0.771,0.515-0.771,0.994 c0,0.286,0.117,0.544,0.305,0.731c0.001,0.002,0.383,0.487,0.297,0.73c-0.018,0.052-0.072,0.084-0.145,0.115 C11.948,6.386,4.05,4.413,1.27,4.413c-0.732,0-1.125,0.123-1.236,0.385c-0.211,0.503,0.561,1.662,2.059,3.837 c0.302,0.438,0.612,0.889,0.912,1.336c0.551,0.821,1.068,1.646,1.484,2.31c0.959,1.531,1.128,1.779,1.337,1.805l0.049,0.006 l0.045-0.016c0.24-0.083,0.451-0.121,0.665-0.121c0.053,0,0.102,0.002,0.147,0.005c-0.017,0.112-0.03,0.241-0.046,0.386 c-0.059,0.556-0.139,1.318-0.485,1.942L6.17,16.345l0.005,0.064c0.04,0.502,0.102,0.729,0.425,1.121 c-0.031,0.038-0.065,0.076-0.1,0.117c-0.178,0.201-0.399,0.453-0.432,0.871c-0.042,0.521,0.574,1.094,1.109,1.514 c-0.834,1.389-0.605,1.541-0.48,1.624c0.023,0.016,0.073,0.041,0.142,0.073c0.242,0.117,0.884,0.425,0.945,0.832 c0.031,0.207-0.091,0.438-0.363,0.69c-1.282,1.187-2.315,4.032-2.358,4.153l0.381,0.182c0.02-0.033,1.992-3.255,3.806-3.255 c0.203,0,0.399,0.042,0.583,0.125l0.07,0.032l0.074-0.021c0.229-0.063,0.335-0.359,0.458-0.701c0-0.002,0.001-0.004,0.002-0.006 c0.032,0.414,0.045,1.047,0.038,1.607l-0.011,0.831l0.408-0.724c0.059-0.104,1.44-2.582,1.017-4.062 c-0.085-0.264,0.155-0.393,0.233-0.426c0.04-0.008,0.16-0.018,0.21-0.01l-0.016,0.088l0.063,0.082 c0.026,0.033,0.086,0.089,0.191,0.089c0.386,0,2.724-1.513,3.118-4.035c0.202,1.452,0.329,2.923,0.42,3.853 c0-0.647,0.122-1.91,0.324-3.293c0.616,2.186,2.639,3.476,2.997,3.476c0.104,0,0.164-0.056,0.19-0.089l0.063-0.082l-0.017-0.088 c0.049-0.008,0.17,0.002,0.21,0.01c0.078,0.033,0.319,0.162,0.233,0.426c-0.423,1.48,0.958,3.958,1.017,4.062l0.408,0.724 l-0.011-0.831c-0.007-0.561,0.006-1.194,0.038-1.607c0.001,0.002,0.002,0.004,0.002,0.006c0.123,0.342,0.229,0.638,0.458,0.701 l0.074,0.021l0.069-0.032c0.185-0.083,0.38-0.125,0.583-0.125c1.814,0,3.786,3.222,3.807,3.255l0.381-0.182 c-0.043-0.121-1.076-2.967-2.358-4.153c-0.271-0.252-0.395-0.483-0.363-0.69c0.062-0.407,0.704-0.715,0.945-0.832 c0.069-0.032,0.119-0.058,0.142-0.073c0.125-0.083,0.354-0.235-0.479-1.624c0.536-0.42,1.151-0.994,1.109-1.514 c-0.033-0.418-0.255-0.668-0.433-0.871c-0.035-0.041-0.068-0.08-0.1-0.117c0.324-0.393,0.386-0.619,0.425-1.121l0.005-0.064 l-0.031-0.056c-0.346-0.624-0.426-1.386-0.484-1.942c-0.017-0.146-0.029-0.274-0.046-0.386c0.046-0.003,0.095-0.005,0.146-0.005 c0.214,0,0.425,0.038,0.665,0.121l0.046,0.016l0.049-0.006c0.208-0.026,0.377-0.273,1.337-1.805 c0.416-0.664,0.934-1.489,1.484-2.31c0.3-0.447,0.61-0.897,0.912-1.336C31.405,6.459,32.177,5.301,31.965,4.797z M20.038,9.896 l0.449-0.621c0.351-0.42,0.812-0.879,1.28-1.311c0.204-0.103,3.305-1.28,5.063-1.174c-1.668,0.782-4.599,2.248-6.938,3.43 C19.921,10.122,19.972,10.014,20.038,9.896z M24.036,8.382c-0.229,0.461-0.83,1.571-1.568,2.228 c-1.659,0.638-3.689,1.272-4.903,1.637c0.026-0.141,0.045-0.255,0.048-0.333c0.005-0.112-0.007-0.205-0.031-0.284 C19.067,10.874,21.738,9.52,24.036,8.382z M24.818,13.871c0.03,0.115,0.05,0.302,0.073,0.52c0.038,0.359,0.084,0.8,0.201,1.247 c-0.484,0.167-1.82,0.571-2.989,0.405c-0.689-0.098-1.947-0.393-3.094-0.681c0.192-0.027,0.395-0.062,0.601-0.098 c0.463-0.081,0.937-0.163,1.271-0.134c0.325,0.159,0.695,0.229,1.083,0.081c0.825-0.317,1.521-0.846,1.859-1.132 c0.302-0.055,0.541-0.109,0.712-0.149C24.657,13.9,24.771,13.874,24.818,13.871z M24.776,13.822l0.024-0.013l0.009,0.024 c0.002,0.007,0.004,0.019,0.007,0.027C24.802,13.854,24.787,13.843,24.776,13.822z M17.216,13.748 c0.952,0.228,1.821,0.371,2.6,0.45c0.11,0.148,0.37,0.465,0.719,0.721c-0.291,0.02-0.621,0.077-0.962,0.136 c-0.445,0.078-0.898,0.155-1.23,0.137c-0.558-0.144-1.046-0.273-1.377-0.362C17.051,14.447,17.137,14.083,17.216,13.748z M23.802,17.167c-1.611,0.067-4.195-0.515-4.594-0.606c-0.139-0.047-0.275-0.092-0.41-0.135l0.854-0.688 c0.77,0.187,1.529,0.36,2.085,0.459C22.155,16.423,22.998,16.858,23.802,17.167z M17.267,13.541 c0.045-0.186,0.087-0.361,0.126-0.523c0.583-0.078,1.382-0.188,2.287-0.327c0.074,0.093,0.63,0.735,2.124,1.376 C20.626,14.095,19.106,13.979,17.267,13.541z M17.444,12.795c0.039-0.165,0.072-0.313,0.099-0.443l6.23-1.235 c-0.616,0.39-1.298,0.754-1.999,1.012C20.083,12.43,18.461,12.661,17.444,12.795z M7.465,13.929c0.171,0.04,0.41,0.095,0.712,0.149 c0.34,0.287,1.034,0.815,1.859,1.132c0.387,0.148,0.758,0.078,1.083-0.081c0.335-0.028,0.809,0.053,1.271,0.134 c0.206,0.036,0.407,0.071,0.6,0.098c-1.146,0.288-2.404,0.583-3.093,0.681c-1.168,0.166-2.504-0.238-2.99-0.405 c0.117-0.447,0.164-0.888,0.202-1.247c0.023-0.218,0.043-0.405,0.073-0.52C7.229,13.874,7.342,13.9,7.465,13.929z M7.184,13.861 c0.002-0.008,0.004-0.021,0.006-0.027l0.008-0.024l0.025,0.013C7.213,13.843,7.198,13.854,7.184,13.861z M14.782,12.827 c-0.99-0.13-2.732-0.373-4.558-0.696c-0.701-0.258-1.382-0.623-1.998-1.012l6.496,1.288C14.728,12.52,14.749,12.661,14.782,12.827z M12.32,12.689c1.026,0.158,1.915,0.279,2.508,0.356c0.03,0.136,0.066,0.285,0.105,0.444c-1.93,0.479-3.519,0.605-4.738,0.576 C11.69,13.425,12.246,12.784,12.32,12.689z M10.264,16.198c0.557-0.1,1.316-0.272,2.085-0.459l0.853,0.688 c-0.134,0.043-0.271,0.088-0.41,0.135c-0.398,0.092-2.982,0.675-4.594,0.606C9.002,16.858,9.844,16.423,10.264,16.198z M12.427,15.056c-0.341-0.06-0.671-0.116-0.962-0.136c0.35-0.256,0.608-0.573,0.719-0.721c0.833-0.084,1.77-0.242,2.801-0.499 c0.081,0.323,0.171,0.685,0.261,1.074c-0.307,0.083-0.896,0.241-1.59,0.419C13.325,15.209,12.872,15.132,12.427,15.056z M14.803,11.827c-0.05,0.131-0.082,0.294-0.084,0.502c0,0.001,0,0.002,0,0.003c-1.158-0.344-3.391-1.031-5.188-1.722 C8.793,9.954,8.193,8.844,7.963,8.382C10.477,9.626,13.438,11.13,14.803,11.827z M11.513,9.275l0.449,0.621 c0.067,0.116,0.117,0.225,0.146,0.324c-2.341-1.183-5.271-2.648-6.94-3.43c1.759-0.106,4.86,1.072,5.064,1.174 C10.701,8.396,11.162,8.855,11.513,9.275z M1.156,6.479C0.693,5.751,0.357,5.144,0.42,4.971C0.421,4.97,0.54,4.836,1.27,4.836 c1.509,0,4.562,0.594,7.575,1.933c0.273,0.22,0.6,0.493,0.941,0.793C8.658,7.148,6.17,6.371,4.802,6.621 c-0.15-0.068-0.286-0.129-0.405-0.181C2.548,5.632,1.54,6.168,1.156,6.479z M3.552,10.029c-0.064-0.098-0.13-0.196-0.196-0.294 C3.125,9.39,2.888,9.044,2.652,8.702C3.34,7.768,5.68,7.647,6.438,7.634c0.394,0.192,0.815,0.398,1.253,0.614L7.668,8.259 c0.028,0.063,0.579,1.275,1.369,2.157C8.159,10.06,7.436,9.712,7.076,9.418C6.642,9.065,6.127,9,5.622,9.077 c-0.02-0.019-0.03-0.029-0.03-0.029L5.479,9.102C4.657,9.27,3.883,9.786,3.552,10.029z M5.891,13.64 c-0.177-0.2-0.617-0.902-1.043-1.583c-0.064-0.102-0.13-0.207-0.197-0.315c0.306-0.362,1-0.348,1.85-0.196 c0.043,0.251,0.148,1.178-0.409,2.041C6.026,13.602,5.959,13.619,5.891,13.64z M6.585,13.531c-0.072,0-0.145,0.005-0.218,0.013 c0.454-0.809,0.405-1.62,0.356-1.955c0.391,0.077,0.809,0.177,1.233,0.279c0.524,0.127,1.066,0.257,1.599,0.356 c0.862,0.16,1.723,0.304,2.514,0.427c-0.229,0.234-0.919,0.836-2.382,1.394C8.63,13.979,7.9,13.812,7.513,13.723 c-0.116-0.027-0.201-0.047-0.268-0.057l0.03-0.094L7,13.557c-0.035-0.002-0.073-0.005-0.113-0.009 C6.799,13.539,6.7,13.531,6.585,13.531z M7.49,19.736c-0.891-0.693-1.01-1.04-0.999-1.187c0.021-0.275,0.17-0.445,0.328-0.623 c0.083-0.095,0.168-0.191,0.233-0.304l0.077-0.132l-0.003-0.004c0.182-0.031,0.384-0.083,0.595-0.15 c0.227,0.034,0.482,0.051,0.758,0.051c0.942,0,2.1-0.172,2.994-0.336C9.893,17.695,8.278,18.588,7.49,19.736z M10.897,24.463 c-0.027-1.229-0.158-1.361-0.206-1.41s-0.111-0.074-0.176-0.074l-0.042,0.002c-0.222,0.039-0.317,0.305-0.438,0.641 c-0.042,0.118-0.106,0.298-0.16,0.393C9.851,24.005,9.827,24,9.803,23.993c-0.407-0.672-1.463-0.591-2.038-0.488 c0.179-0.177,0.305-0.355,0.375-0.533c0.357-0.045,0.735-0.272,1.142-0.648c0.335,0.059,1.277,0.154,2.262-0.352 C11.573,22.766,11.204,23.774,10.897,24.463z M11.89,18.543c-1.242,1.863-2.641,3.954-3.686,4.203c0.012-0.083,0.013-0.167,0-0.25 c-0.008-0.051-0.021-0.1-0.037-0.146c0.979-1.111,1.453-2.162,1.678-2.971c0.325-0.335,1.752-1.74,2.777-1.684 C12.374,17.912,12.126,18.188,11.89,18.543z M12.716,20.75c-0.006-0.011-0.013-0.02-0.02-0.029c1.007-1.84,1.112-3.089,1.119-3.439 c0.623-0.16,1.153-0.016,1.414,0.084C14.828,19.247,13.25,20.469,12.716,20.75z M15.322,16.524 c-0.002,0.219-0.026,0.428-0.059,0.632c-0.438-0.152-1.419-0.354-2.414,0.36c-0.977-0.237-2.303,0.888-2.907,1.467 c0.101-0.489,0.107-0.852,0.102-1.026c2.025-1.078,4.518-1.718,5.282-1.899C15.323,16.25,15.322,16.413,15.322,16.524z M19.284,20.75c-0.535-0.281-2.112-1.503-2.513-3.385c0.261-0.1,0.792-0.244,1.415-0.084c0.007,0.351,0.11,1.601,1.119,3.439 C19.297,20.731,19.29,20.74,19.284,20.75z M19.151,17.516c-0.995-0.715-1.978-0.513-2.415-0.36 c-0.033-0.205-0.057-0.414-0.059-0.632c0-0.068,0-0.157-0.001-0.258c0.012-0.067,0.024-0.133,0.037-0.2 c0.804,0.192,3.248,0.83,5.243,1.89c-0.005,0.175,0.001,0.537,0.103,1.027C21.454,18.404,20.128,17.279,19.151,17.516z M20.11,18.543c-0.237-0.355-0.484-0.632-0.733-0.848c1.025-0.057,2.452,1.348,2.777,1.684c0.226,0.809,0.699,1.858,1.678,2.971 c-0.016,0.047-0.028,0.097-0.037,0.146c-0.013,0.083-0.012,0.167,0,0.25C22.75,22.498,21.353,20.407,20.11,18.543z M24.233,23.504 c-0.575-0.103-1.63-0.184-2.038,0.488c-0.024,0.007-0.048,0.014-0.072,0.021c-0.053-0.095-0.118-0.274-0.16-0.393 c-0.121-0.336-0.215-0.602-0.438-0.641l-0.042-0.002c-0.065,0-0.128,0.025-0.176,0.074c-0.049,0.049-0.18,0.182-0.206,1.41 c-0.309-0.689-0.677-1.697-0.648-2.494c0.985,0.506,1.927,0.41,2.262,0.353c0.406,0.376,0.784,0.603,1.143,0.649 C23.93,23.149,24.055,23.328,24.233,23.504z M25.509,18.549c0.012,0.146-0.107,0.493-0.999,1.187 c-0.788-1.147-2.402-2.041-3.981-2.685c0.894,0.164,2.051,0.334,2.994,0.334c0.275,0,0.531-0.016,0.758-0.05 c0.211,0.067,0.413,0.12,0.595,0.15l-0.003,0.004l0.076,0.132c0.065,0.111,0.151,0.209,0.233,0.303 C25.338,18.104,25.487,18.274,25.509,18.549z M25.415,13.531c-0.115,0-0.214,0.009-0.302,0.017 c-0.041,0.004-0.078,0.007-0.114,0.009l-0.273,0.015l0.029,0.094c-0.066,0.01-0.152,0.03-0.268,0.057 c-0.387,0.09-1.117,0.258-2.174,0.322c-1.463-0.558-2.153-1.16-2.382-1.394c0.792-0.124,1.651-0.267,2.514-0.427 c0.533-0.099,1.074-0.229,1.598-0.356c0.425-0.102,0.842-0.202,1.233-0.279c-0.049,0.335-0.097,1.146,0.355,1.955 C25.561,13.536,25.487,13.531,25.415,13.531z M27.152,12.056c-0.427,0.681-0.867,1.384-1.043,1.583 c-0.068-0.021-0.135-0.038-0.201-0.052c-0.557-0.863-0.452-1.79-0.409-2.041c0.851-0.152,1.544-0.167,1.851,0.196 C27.281,11.85,27.215,11.955,27.152,12.056z M28.644,9.735c-0.065,0.098-0.131,0.196-0.195,0.294 c-0.331-0.243-1.104-0.758-1.927-0.926l-0.112-0.055c0,0-0.01,0.01-0.03,0.029C25.873,9,25.358,9.065,24.925,9.418 c-0.359,0.293-1.083,0.641-1.961,0.996c0.79-0.882,1.341-2.094,1.369-2.157l-0.022-0.011c0.438-0.216,0.858-0.422,1.253-0.614 c0.758,0.014,3.098,0.135,3.785,1.068C29.111,9.043,28.875,9.39,28.644,9.735z M30.843,6.479c-0.383-0.311-1.392-0.847-3.24-0.041 c-0.119,0.052-0.254,0.113-0.405,0.181c-1.368-0.25-3.856,0.528-4.984,0.942c0.342-0.3,0.668-0.573,0.941-0.793 c3.014-1.339,6.066-1.933,7.575-1.933c0.729,0,0.849,0.132,0.85,0.134C31.643,5.144,31.308,5.751,30.843,6.479z"/> </g> </g>
</svg>